<?xml version="1.0" encoding="UTF-8"?><svg id="Layer_1" xmlns="http://www.w3.org/2000/svg" viewBox="0 0 512 512"><defs><style>.cls-1{fill:#da1c5c;stroke-width:0px;}</style></defs><rect class="cls-1" x="39.92" y="45.68" width="18.7" height="18.7"/><rect class="cls-1" x="16.61" y="46.29" width="18.7" height="18.7"/><rect class="cls-1" x="4.96" y="68.6" width="18.7" height="18.7"/><rect class="cls-1" x="29.13" y="68.6" width="18.7" height="18.7"/><rect class="cls-1" x="16.61" y="90.92" width="18.7" height="18.7"/><rect class="cls-1" x="40.78" y="90.92" width="18.7" height="18.7"/><rect class="cls-1" x="29.13" y="113.24" width="18.7" height="18.7"/><rect class="cls-1" x="53.29" y="113.24" width="18.7" height="18.7"/><rect class="cls-1" x="29.13" y="22.6" width="18.7" height="18.7"/><rect class="cls-1" x="53.29" y="22.6" width="18.7" height="18.7"/><rect class="cls-1" x="40.78" y="135.56" width="18.7" height="18.7"/><rect class="cls-1" x="64.95" y="135.56" width="18.7" height="18.7"/><rect class="cls-1" x="53.29" y="157.88" width="18.7" height="18.7"/><rect class="cls-1" x="77.46" y="157.88" width="18.7" height="18.7"/><rect class="cls-1" x="101.63" y="157.88" width="18.7" height="18.7"/><rect class="cls-1" x="125.8" y="157.88" width="18.7" height="18.7"/><rect class="cls-1" x="149.96" y="157.88" width="18.7" height="18.7"/><rect class="cls-1" x="174.13" y="157.88" width="18.7" height="18.7"/><rect class="cls-1" x="198.3" y="157.88" width="18.7" height="18.7"/><rect class="cls-1" x="222.47" y="157.88" width="18.7" height="18.7"/><rect class="cls-1" x="246.63" y="157.88" width="18.7" height="18.7"/><rect class="cls-1" x="270.6" y="157.88" width="18.7" height="18.7"/><rect class="cls-1" x="64.95" y="180.2" width="18.7" height="18.7"/><rect class="cls-1" x="89.12" y="180.2" width="18.7" height="18.7"/><rect class="cls-1" x="282.46" y="180.2" width="18.7" height="18.7"/><rect class="cls-1" x="306.62" y="180.2" width="18.7" height="18.7"/><rect class="cls-1" x="77.46" y="202.51" width="18.7" height="18.7"/><rect class="cls-1" x="101.63" y="202.51" width="18.7" height="18.7"/><rect class="cls-1" x="319.14" y="202.51" width="18.7" height="18.7"/><rect class="cls-1" x="343.31" y="202.51" width="18.7" height="18.7"/><rect class="cls-1" x="89.12" y="224.83" width="18.7" height="18.7"/><rect class="cls-1" x="113.28" y="224.83" width="18.7" height="18.7"/><rect class="cls-1" x="161.62" y="210.09" width="18.7" height="18.7"/><rect class="cls-1" x="209.95" y="224.83" width="18.7" height="18.7"/><rect class="cls-1" x="234.12" y="224.83" width="18.7" height="18.7"/><rect class="cls-1" x="258.29" y="224.83" width="18.7" height="18.7"/><rect class="cls-1" x="269.75" y="246.85" width="18.7" height="18.7"/><rect class="cls-1" x="354.96" y="224.83" width="18.7" height="18.7"/><rect class="cls-1" x="379.13" y="224.83" width="18.7" height="18.7"/><rect class="cls-1" x="101.63" y="247.15" width="18.7" height="18.7"/><rect class="cls-1" x="125.8" y="247.15" width="18.7" height="18.7"/><rect class="cls-1" x="198.3" y="247.15" width="18.7" height="18.7"/><rect class="cls-1" x="391.64" y="247.15" width="18.7" height="18.7"/><rect class="cls-1" x="137.45" y="269.47" width="18.7" height="18.7"/><rect class="cls-1" x="185.79" y="269.47" width="18.7" height="18.7"/><rect class="cls-1" x="258.29" y="269.47" width="18.7" height="18.7"/><rect class="cls-1" x="403.29" y="269.47" width="18.7" height="18.7"/><rect class="cls-1" x="427.46" y="269.47" width="18.7" height="18.7"/><rect class="cls-1" x="149.96" y="291.79" width="18.7" height="18.7"/><rect class="cls-1" x="174.13" y="291.79" width="18.7" height="18.7"/><rect class="cls-1" x="198.3" y="291.79" width="18.7" height="18.7"/><rect class="cls-1" x="222.47" y="291.79" width="18.7" height="18.7"/><rect class="cls-1" x="246.63" y="291.79" width="18.7" height="18.7"/><rect class="cls-1" x="415.81" y="291.79" width="18.7" height="18.7"/><rect class="cls-1" x="439.98" y="291.79" width="18.7" height="18.7"/><rect class="cls-1" x="161.62" y="314.11" width="18.7" height="18.7"/><rect class="cls-1" x="185.79" y="314.11" width="18.7" height="18.7"/><rect class="cls-1" x="427.46" y="314.11" width="18.7" height="18.7"/><rect class="cls-1" x="451.63" y="314.11" width="18.7" height="18.7"/><rect class="cls-1" x="174.13" y="336.43" width="18.7" height="18.7"/><rect class="cls-1" x="198.3" y="336.43" width="18.7" height="18.7"/><rect class="cls-1" x="439.98" y="336.43" width="18.7" height="18.7"/><rect class="cls-1" x="185.79" y="358.74" width="18.7" height="18.7"/><rect class="cls-1" x="209.95" y="358.74" width="18.7" height="18.7"/><rect class="cls-1" x="427.46" y="358.74" width="18.7" height="18.7"/><rect class="cls-1" x="451.63" y="358.74" width="18.7" height="18.7"/><rect class="cls-1" x="198.3" y="381.06" width="18.7" height="18.7"/><rect class="cls-1" x="415.81" y="381.06" width="18.7" height="18.7"/><rect class="cls-1" x="464.14" y="381.06" width="18.7" height="18.7"/><rect class="cls-1" x="488.31" y="381.06" width="18.7" height="18.7"/><rect class="cls-1" x="185.79" y="403.38" width="18.7" height="18.7"/><rect class="cls-1" x="209.95" y="403.38" width="18.7" height="18.7"/><rect class="cls-1" x="306.62" y="403.38" width="18.7" height="18.7"/><rect class="cls-1" x="330.79" y="403.38" width="18.7" height="18.7"/><rect class="cls-1" x="403.29" y="403.38" width="18.7" height="18.7"/><rect class="cls-1" x="198.3" y="425.7" width="18.7" height="18.7"/><rect class="cls-1" x="270.8" y="425.7" width="18.7" height="18.7"/><rect class="cls-1" x="294.97" y="425.7" width="18.7" height="18.7"/><rect class="cls-1" x="319.14" y="425.7" width="18.7" height="18.7"/><rect class="cls-1" x="343.31" y="425.7" width="18.7" height="18.7"/><rect class="cls-1" x="391.64" y="425.7" width="18.7" height="18.7"/><rect class="cls-1" x="185.79" y="448.02" width="18.7" height="18.7"/><rect class="cls-1" x="209.95" y="448.02" width="18.7" height="18.7"/><rect class="cls-1" x="234.12" y="448.02" width="18.7" height="18.7"/><rect class="cls-1" x="258.29" y="448.02" width="18.7" height="18.7"/><rect class="cls-1" x="330.79" y="448.02" width="18.7" height="18.7"/><rect class="cls-1" x="354.96" y="448.02" width="18.7" height="18.7"/><rect class="cls-1" x="379.13" y="448.02" width="18.7" height="18.7"/><rect class="cls-1" x="403.29" y="448.02" width="18.7" height="18.7"/><rect class="cls-1" x="198.3" y="470.34" width="18.7" height="18.7"/><rect class="cls-1" x="222.47" y="470.34" width="18.7" height="18.7"/><rect class="cls-1" x="246.63" y="470.34" width="18.7" height="18.7"/><rect class="cls-1" x="343.31" y="470.34" width="18.7" height="18.7"/><rect class="cls-1" x="367.47" y="470.34" width="18.7" height="18.7"/><rect class="cls-1" x="391.64" y="470.34" width="18.7" height="18.7"/></svg>